<svg xmlns="http://www.w3.org/2000/svg" xmlns:xlink="http://www.w3.org/1999/xlink" width="57.014" height="49.211" viewBox="0 0 57.014 49.211">
  <defs>
    <filter id="Path_3" x="10.133" y="8.784" width="38.647" height="40.427" filterUnits="userSpaceOnUse">
      <feOffset dy="3" input="SourceAlpha"/>
      <feGaussianBlur stdDeviation="3" result="blur"/>
      <feFlood flood-opacity="0.161"/>
      <feComposite operator="in" in2="blur"/>
      <feComposite in="SourceGraphic"/>
    </filter>
  </defs>
  <g id="kq4" transform="translate(-0.002 0.006)">
    <path id="Path_1" data-name="Path 1" d="M7172.537,7153.4a174.7,174.7,0,0,1,1.055,18.906q0,2.722-.075,5.439a4.018,4.018,0,0,0,3.985,3.985,4.062,4.062,0,0,0,3.985-3.985,173.9,173.9,0,0,0-.468-18.929q-.211-2.716-.512-5.417a4.416,4.416,0,0,0-1.169-2.82,3.991,3.991,0,0,0-5.637,0A3.871,3.871,0,0,0,7172.537,7153.4Z" transform="translate(-7154.503 -7144.519)" fill="#0080ff"/>
    <path id="Path_2" data-name="Path 2" d="M7182.472,7166.734a165.14,165.14,0,0,0,9.649-13.7,4.021,4.021,0,0,0-1.433-5.451,4.066,4.066,0,0,0-5.45,1.427q-3.992,6.366-8.582,12.32l.624-.8-.445.57a4.42,4.42,0,0,0-1.164,2.819,3.986,3.986,0,0,0,3.984,3.986A3.842,3.842,0,0,0,7182.472,7166.734Z" transform="translate(-7156.456 -7143.06)" fill="#0080ff"/>
    <g transform="matrix(1, 0, 0, 1, 0, -0.01)" filter="url(#Path_3)">
      <path id="Path_3-2" data-name="Path 3" d="M7177.4,7182.866c.9.57,1.776,1.185,2.623,1.833l-.806-.622a34.778,34.778,0,0,1,6.131,6.134l-.623-.809a34.38,34.38,0,0,1,3.959,6.5,4.031,4.031,0,0,0,2.383,1.829,4.074,4.074,0,0,0,3.071-.4,4.024,4.024,0,0,0,1.829-2.384l.145-1.058a3.973,3.973,0,0,0-.547-2.013,36.973,36.973,0,0,0-9.868-12.772,42.473,42.473,0,0,0-4.263-3.127,4.025,4.025,0,0,0-5.454,1.431,4.071,4.071,0,0,0,1.43,5.454Z" transform="translate(-7156.33 -7160.66)" fill="#0080ff"/>
    </g>
    <path id="Path_4" data-name="Path 4" d="M7133.159,7141.892a30.675,30.675,0,0,1-1.781,5.493l.4-.953c-2.03,4.809-4.785,9.307-6.35,14.31a6.481,6.481,0,0,0,.759,5.925c1.014,1.37,2.084,2.7,3.127,4.042l5.288,6.832,5.982,7.725a3.925,3.925,0,0,0,2.815,1.165,4.063,4.063,0,0,0,2.821-1.165,4,4,0,0,0,1.164-2.82l-.14-1.059a3.969,3.969,0,0,0-1.024-1.758q-6.8-8.771-13.593-17.544l.623.806a5.71,5.71,0,0,1-.649-.99l.4.952a2.788,2.788,0,0,1-.164-.558l.141,1.059a2.817,2.817,0,0,1,0-.5l-.144,1.059a18.692,18.692,0,0,1,1.469-4.292l-.4.952c2.331-5.493,5.664-10.65,6.924-16.553a4.231,4.231,0,0,0-.4-3.071,4.081,4.081,0,0,0-2.383-1.829,4.038,4.038,0,0,0-3.071.4,3.986,3.986,0,0,0-1.833,2.38Z" transform="translate(-7125.049 -7138.044)" fill="#0080ff"/>
    <path id="Path_5" data-name="Path 5" d="M7222.307,7143.916c.172.122.339.246.506.38l-.8-.623a21.524,21.524,0,0,1,3.75,3.8l-.627-.809a34.782,34.782,0,0,1,4.267,7.646l-.38-.949c.38.876.714,1.757,1.048,2.656a14.73,14.73,0,0,1,.88,2.563l-.144-1.06a3.2,3.2,0,0,1,0,.547l.144-1.059a16.27,16.27,0,0,1-1.229,3.837l.4-.952c-2.449,5.727-6.716,10.338-10.286,15.356a46.753,46.753,0,0,0-2.858,4.485,4.173,4.173,0,0,0-.4,3.071,3.985,3.985,0,0,0,7.284.953c3.173-5.755,7.883-10.453,11.227-16.094a37.728,37.728,0,0,0,2.475-5.081c.809-2,1.583-4.264,1.01-6.419a24.685,24.685,0,0,0-.85-2.35q-.457-1.214-.949-2.4a51.082,51.082,0,0,0-2.559-5.438,32.83,32.83,0,0,0-3.393-4.87,24.125,24.125,0,0,0-4.476-4.068,3.984,3.984,0,0,0-5.854,4.5l.4.953a4.009,4.009,0,0,0,1.431,1.431Z" transform="translate(-7181.754 -7136.5)" fill="#0080ff"/>
  </g>
</svg>
